<mxfile host="65bd71144e">
    <diagram id="ee_gDtnK6uAo2xznAAh-" name="Page-1">
        <mxGraphModel dx="718" dy="396" grid="1" gridSize="10" guides="1" tooltips="1" connect="1" arrows="1" fold="1" page="1" pageScale="1" pageWidth="850" pageHeight="1100" math="0" shadow="0">
            <root>
                <mxCell id="0"/>
                <mxCell id="1" parent="0"/>
                <mxCell id="11" value="" style="rounded=1;whiteSpace=wrap;html=1;fillColor=none;arcSize=3;fontFamily=Tahoma;" parent="1" vertex="1">
                    <mxGeometry x="250" y="30" width="180" height="210" as="geometry"/>
                </mxCell>
                <mxCell id="4" value="" style="rounded=1;whiteSpace=wrap;html=1;fillColor=none;arcSize=3;fontFamily=Tahoma;" parent="1" vertex="1">
                    <mxGeometry x="30" y="30" width="170" height="270" as="geometry"/>
                </mxCell>
                <mxCell id="2" value="" style="shape=image;verticalLabelPosition=bottom;labelBackgroundColor=default;verticalAlign=top;aspect=fixed;imageAspect=0;image=https://upload.wikimedia.org/wikipedia/commons/thumb/f/f9/Salesforce.com_logo.svg/1200px-Salesforce.com_logo.svg.png;fontFamily=Tahoma;" parent="1" vertex="1">
                    <mxGeometry x="40" y="35" width="28.57" height="20" as="geometry"/>
                </mxCell>
                <mxCell id="7" value="NodeJS Server" style="text;html=1;align=center;verticalAlign=middle;resizable=0;points=[];autosize=1;strokeColor=none;fillColor=none;fontFamily=Tahoma;" parent="1" vertex="1">
                    <mxGeometry x="280" y="30" width="100" height="30" as="geometry"/>
                </mxCell>
                <mxCell id="8" value="" style="rounded=0;whiteSpace=wrap;html=1;fontFamily=Tahoma;" parent="1" vertex="1">
                    <mxGeometry x="40" y="170" width="150" height="120" as="geometry"/>
                </mxCell>
                <mxCell id="9" style="edgeStyle=none;html=1;fontFamily=Tahoma;" parent="1" edge="1">
                    <mxGeometry relative="1" as="geometry">
                        <mxPoint x="110" y="70" as="sourcePoint"/>
                        <mxPoint x="255.5" y="70" as="targetPoint"/>
                    </mxGeometry>
                </mxCell>
                <mxCell id="10" value="signed_request" style="edgeLabel;html=1;align=center;verticalAlign=middle;resizable=0;points=[];fontFamily=Tahoma;" parent="9" vertex="1" connectable="0">
                    <mxGeometry x="-0.1851" y="3" relative="1" as="geometry">
                        <mxPoint x="-9" y="-7" as="offset"/>
                    </mxGeometry>
                </mxCell>
                <mxCell id="13" value="" style="outlineConnect=0;dashed=0;verticalLabelPosition=bottom;verticalAlign=top;align=center;html=1;shape=mxgraph.aws3.android;fillColor=#8CC64F;gradientColor=none;fontFamily=Tahoma;" parent="1" vertex="1">
                    <mxGeometry x="263.64" y="35" width="17.5" height="20" as="geometry"/>
                </mxCell>
                <mxCell id="14" value="" style="image;aspect=fixed;html=1;points=[];align=center;fontSize=12;image=img/lib/azure2/security/Key_Vaults.svg;fontFamily=Tahoma;" parent="1" vertex="1">
                    <mxGeometry x="290" y="60" width="20" height="20" as="geometry"/>
                </mxCell>
                <mxCell id="15" value="appSecretKey" style="text;html=1;align=center;verticalAlign=middle;resizable=0;points=[];autosize=1;strokeColor=none;fillColor=none;fontFamily=Tahoma;" parent="1" vertex="1">
                    <mxGeometry x="307.5" y="55" width="100" height="30" as="geometry"/>
                </mxCell>
                <mxCell id="20" style="edgeStyle=none;html=1;fontFamily=Tahoma;" parent="1" source="16" target="19" edge="1">
                    <mxGeometry relative="1" as="geometry"/>
                </mxCell>
                <mxCell id="16" value="" style="sketch=0;aspect=fixed;pointerEvents=1;shadow=0;dashed=0;html=1;strokeColor=none;labelPosition=center;verticalLabelPosition=bottom;verticalAlign=top;align=center;fillColor=#00188D;shape=mxgraph.mscae.enterprise.code_file;fontFamily=Tahoma;" parent="1" vertex="1">
                    <mxGeometry x="290.4" y="120" width="19.6" height="20" as="geometry"/>
                </mxCell>
                <mxCell id="17" style="edgeStyle=none;html=1;entryX=0.5;entryY=0;entryDx=0;entryDy=0;entryPerimeter=0;fontFamily=Tahoma;" parent="1" source="14" target="16" edge="1">
                    <mxGeometry relative="1" as="geometry"/>
                </mxCell>
                <mxCell id="18" value="decrypt" style="text;html=1;align=center;verticalAlign=middle;resizable=0;points=[];autosize=1;strokeColor=none;fillColor=none;fontFamily=Tahoma;" parent="1" vertex="1">
                    <mxGeometry x="307.5" y="115" width="60" height="30" as="geometry"/>
                </mxCell>
                <mxCell id="35" style="edgeStyle=none;html=1;" parent="1" source="19" target="34" edge="1">
                    <mxGeometry relative="1" as="geometry"/>
                </mxCell>
                <mxCell id="40" value="Request Token" style="edgeLabel;html=1;align=center;verticalAlign=middle;resizable=0;points=[];" parent="35" vertex="1" connectable="0">
                    <mxGeometry x="-0.392" y="2" relative="1" as="geometry">
                        <mxPoint x="-3" y="-2" as="offset"/>
                    </mxGeometry>
                </mxCell>
                <mxCell id="21" value="Angula" style="text;html=1;align=center;verticalAlign=middle;resizable=0;points=[];autosize=1;strokeColor=none;fillColor=none;fontFamily=Tahoma;" parent="1" vertex="1">
                    <mxGeometry x="302.5" y="165.5" width="60" height="30" as="geometry"/>
                </mxCell>
                <mxCell id="23" style="edgeStyle=none;html=1;entryX=0.956;entryY=0.506;entryDx=0;entryDy=0;entryPerimeter=0;fontFamily=Tahoma;" parent="1" source="19" target="28" edge="1">
                    <mxGeometry relative="1" as="geometry"/>
                </mxCell>
                <mxCell id="24" value="source" style="edgeLabel;html=1;align=center;verticalAlign=middle;resizable=0;points=[];fontFamily=Tahoma;" parent="23" vertex="1" connectable="0">
                    <mxGeometry x="-0.0086" relative="1" as="geometry">
                        <mxPoint x="-4" as="offset"/>
                    </mxGeometry>
                </mxCell>
                <mxCell id="25" value="&lt;span style=&quot;color: rgb(0, 0, 0); font-size: 12px; font-style: normal; font-variant-ligatures: normal; font-variant-caps: normal; font-weight: 400; letter-spacing: normal; orphans: 2; text-align: center; text-indent: 0px; text-transform: none; widows: 2; word-spacing: 0px; -webkit-text-stroke-width: 0px; white-space: normal; background-color: rgb(251, 251, 251); text-decoration-thickness: initial; text-decoration-style: initial; text-decoration-color: initial; float: none; display: inline !important;&quot;&gt;Canvas iframe&lt;/span&gt;" style="text;whiteSpace=wrap;html=1;fontFamily=Tahoma;" parent="1" vertex="1">
                    <mxGeometry x="40.19999999999999" y="145" width="80" height="40" as="geometry"/>
                </mxCell>
                <mxCell id="26" value="" style="sketch=0;aspect=fixed;pointerEvents=1;shadow=0;dashed=0;html=1;strokeColor=none;labelPosition=center;verticalLabelPosition=bottom;verticalAlign=top;align=center;fillColor=#00188D;shape=mxgraph.mscae.enterprise.code_file;fontFamily=Tahoma;" parent="1" vertex="1">
                    <mxGeometry x="70.39999999999998" y="250" width="19.6" height="20" as="geometry"/>
                </mxCell>
                <mxCell id="27" value="" style="image;aspect=fixed;html=1;points=[];align=center;fontSize=12;image=img/lib/azure2/security/Key_Vaults.svg;fontFamily=Tahoma;" parent="1" vertex="1">
                    <mxGeometry x="70" y="195.5" width="20" height="20" as="geometry"/>
                </mxCell>
                <mxCell id="28" value="oauthToken" style="text;html=1;align=center;verticalAlign=middle;resizable=0;points=[];autosize=1;strokeColor=none;fillColor=none;fontFamily=Tahoma;" parent="1" vertex="1">
                    <mxGeometry x="85" y="190.5" width="80" height="30" as="geometry"/>
                </mxCell>
                <mxCell id="30" value="POST" style="text;html=1;align=center;verticalAlign=middle;resizable=0;points=[];autosize=1;strokeColor=none;fillColor=none;fontFamily=Tahoma;" parent="1" vertex="1">
                    <mxGeometry x="70" y="55" width="50" height="30" as="geometry"/>
                </mxCell>
                <mxCell id="31" style="edgeStyle=none;html=1;entryX=0.5;entryY=0;entryDx=0;entryDy=0;entryPerimeter=0;fontFamily=Tahoma;" parent="1" source="27" target="26" edge="1">
                    <mxGeometry relative="1" as="geometry"/>
                </mxCell>
                <mxCell id="33" value="SDK" style="text;html=1;align=center;verticalAlign=middle;resizable=0;points=[];autosize=1;strokeColor=none;fillColor=none;fontFamily=Tahoma;" parent="1" vertex="1">
                    <mxGeometry x="85" y="245" width="50" height="30" as="geometry"/>
                </mxCell>
                <mxCell id="34" value="" style="image;aspect=fixed;html=1;points=[];align=center;fontSize=12;image=img/lib/azure2/identity/Entra_Domain_Services.svg;" parent="1" vertex="1">
                    <mxGeometry x="520" y="171.25" width="68" height="68" as="geometry"/>
                </mxCell>
                <mxCell id="36" style="edgeStyle=none;html=1;entryX=0.956;entryY=1.052;entryDx=0;entryDy=0;entryPerimeter=0;" parent="1" edge="1">
                    <mxGeometry relative="1" as="geometry">
                        <Array as="points">
                            <mxPoint x="510" y="214.44"/>
                        </Array>
                        <mxPoint x="520" y="210.86045454545456" as="sourcePoint"/>
                        <mxPoint x="161.4799999999999" y="215.50000000000006" as="targetPoint"/>
                    </mxGeometry>
                </mxCell>
                <mxCell id="37" value="token" style="edgeLabel;html=1;align=center;verticalAlign=middle;resizable=0;points=[];" parent="36" vertex="1" connectable="0">
                    <mxGeometry x="0.6623" relative="1" as="geometry">
                        <mxPoint as="offset"/>
                    </mxGeometry>
                </mxCell>
                <mxCell id="41" value="Text" style="edgeLabel;html=1;align=center;verticalAlign=middle;resizable=0;points=[];" parent="36" vertex="1" connectable="0">
                    <mxGeometry x="-0.209" y="-2" relative="1" as="geometry">
                        <mxPoint x="-8" y="2" as="offset"/>
                    </mxGeometry>
                </mxCell>
                <mxCell id="39" value="Entra" style="text;html=1;align=center;verticalAlign=middle;resizable=0;points=[];autosize=1;strokeColor=none;fillColor=none;" parent="1" vertex="1">
                    <mxGeometry x="529" y="230" width="50" height="30" as="geometry"/>
                </mxCell>
                <mxCell id="19" value="" style="image;aspect=fixed;html=1;points=[];align=center;fontSize=12;image=img/lib/azure2/preview/Static_Apps.svg;fontFamily=Tahoma;" parent="1" vertex="1">
                    <mxGeometry x="281.14" y="190" width="38.12" height="30.5" as="geometry"/>
                </mxCell>
                <mxCell id="42" value="Vigencia&lt;div&gt;Refresh&lt;/div&gt;&lt;div&gt;SDK&lt;/div&gt;" style="text;html=1;align=left;verticalAlign=middle;resizable=0;points=[];autosize=1;strokeColor=none;fillColor=none;" vertex="1" parent="1">
                    <mxGeometry x="270" y="270" width="70" height="60" as="geometry"/>
                </mxCell>
            </root>
        </mxGraphModel>
    </diagram>
</mxfile>